<?xml version="1.0" encoding="UTF-8" standalone="no"?>
<!DOCTYPE svg PUBLIC "-//W3C//DTD SVG 1.1//EN"
 "http://www.w3.org/Graphics/SVG/1.1/DTD/svg11.dtd">
<!-- Generated by graphviz version 7.1.0 (20230122.1345)
 -->
<!-- Pages: 1 -->
<svg width="1356pt" height="116pt"
 viewBox="0.00 0.00 1355.54 116.00" xmlns="http://www.w3.org/2000/svg" xmlns:xlink="http://www.w3.org/1999/xlink">
<g id="graph0" class="graph" transform="scale(1 1) rotate(0) translate(4 112)">
<polygon fill="white" stroke="none" points="-4,4 -4,-112 1351.54,-112 1351.54,4 -4,4"/>
<!-- download_ATMP -->
<g id="node1" class="node">
<title>download_ATMP</title>
<ellipse fill="none" stroke="black" cx="73.44" cy="-90" rx="73.39" ry="18"/>
<text text-anchor="middle" x="73.44" y="-86.3" font-family="Times,serif" font-size="14.00">download_ATMP</text>
</g>
<!-- parse_ATMP -->
<g id="node7" class="node">
<title>parse_ATMP</title>
<ellipse fill="none" stroke="black" cx="73.44" cy="-18" rx="57.69" ry="18"/>
<text text-anchor="middle" x="73.44" y="-14.3" font-family="Times,serif" font-size="14.00">parse_ATMP</text>
</g>
<!-- download_ATMP&#45;&gt;parse_ATMP -->
<g id="edge1" class="edge">
<title>download_ATMP&#45;&gt;parse_ATMP</title>
<path fill="none" stroke="black" d="M73.44,-71.7C73.44,-64.41 73.44,-55.73 73.44,-47.54"/>
<polygon fill="black" stroke="black" points="76.94,-47.62 73.44,-37.62 69.94,-47.62 76.94,-47.62"/>
</g>
<!-- download_CVD -->
<g id="node2" class="node">
<title>download_CVD</title>
<ellipse fill="none" stroke="black" cx="233.44" cy="-90" rx="68.49" ry="18"/>
<text text-anchor="middle" x="233.44" y="-86.3" font-family="Times,serif" font-size="14.00">download_CVD</text>
</g>
<!-- parse_CVD -->
<g id="node8" class="node">
<title>parse_CVD</title>
<ellipse fill="none" stroke="black" cx="233.44" cy="-18" rx="51.99" ry="18"/>
<text text-anchor="middle" x="233.44" y="-14.3" font-family="Times,serif" font-size="14.00">parse_CVD</text>
</g>
<!-- download_CVD&#45;&gt;parse_CVD -->
<g id="edge2" class="edge">
<title>download_CVD&#45;&gt;parse_CVD</title>
<path fill="none" stroke="black" d="M233.44,-71.7C233.44,-64.41 233.44,-55.73 233.44,-47.54"/>
<polygon fill="black" stroke="black" points="236.94,-47.62 233.44,-37.62 229.94,-47.62 236.94,-47.62"/>
</g>
<!-- download_breast_cancer -->
<g id="node3" class="node">
<title>download_breast_cancer</title>
<ellipse fill="none" stroke="black" cx="417.44" cy="-90" rx="98.28" ry="18"/>
<text text-anchor="middle" x="417.44" y="-86.3" font-family="Times,serif" font-size="14.00">download_breast_cancer</text>
</g>
<!-- parse_breast_cancer -->
<g id="node9" class="node">
<title>parse_breast_cancer</title>
<ellipse fill="none" stroke="black" cx="417.44" cy="-18" rx="81.79" ry="18"/>
<text text-anchor="middle" x="417.44" y="-14.3" font-family="Times,serif" font-size="14.00">parse_breast_cancer</text>
</g>
<!-- download_breast_cancer&#45;&gt;parse_breast_cancer -->
<g id="edge3" class="edge">
<title>download_breast_cancer&#45;&gt;parse_breast_cancer</title>
<path fill="none" stroke="black" d="M417.44,-71.7C417.44,-64.41 417.44,-55.73 417.44,-47.54"/>
<polygon fill="black" stroke="black" points="420.94,-47.62 417.44,-37.62 413.94,-47.62 420.94,-47.62"/>
</g>
<!-- download_immuno_oncology -->
<g id="node4" class="node">
<title>download_immuno_oncology</title>
<ellipse fill="none" stroke="black" cx="650.44" cy="-90" rx="116.98" ry="18"/>
<text text-anchor="middle" x="650.44" y="-86.3" font-family="Times,serif" font-size="14.00">download_immuno_oncology</text>
</g>
<!-- parse_immuno_oncology -->
<g id="node10" class="node">
<title>parse_immuno_oncology</title>
<ellipse fill="none" stroke="black" cx="650.44" cy="-18" rx="100.98" ry="18"/>
<text text-anchor="middle" x="650.44" y="-14.3" font-family="Times,serif" font-size="14.00">parse_immuno_oncology</text>
</g>
<!-- download_immuno_oncology&#45;&gt;parse_immuno_oncology -->
<g id="edge4" class="edge">
<title>download_immuno_oncology&#45;&gt;parse_immuno_oncology</title>
<path fill="none" stroke="black" d="M650.44,-71.7C650.44,-64.41 650.44,-55.73 650.44,-47.54"/>
<polygon fill="black" stroke="black" points="653.94,-47.62 650.44,-37.62 646.94,-47.62 653.94,-47.62"/>
</g>
<!-- download_neurodegenerative -->
<g id="node5" class="node">
<title>download_neurodegenerative</title>
<ellipse fill="none" stroke="black" cx="899.44" cy="-90" rx="114.28" ry="18"/>
<text text-anchor="middle" x="899.44" y="-86.3" font-family="Times,serif" font-size="14.00">download_neurodegenerative</text>
</g>
<!-- parse_neurodegenerative -->
<g id="node11" class="node">
<title>parse_neurodegenerative</title>
<ellipse fill="none" stroke="black" cx="899.44" cy="-18" rx="98.58" ry="18"/>
<text text-anchor="middle" x="899.44" y="-14.3" font-family="Times,serif" font-size="14.00">parse_neurodegenerative</text>
</g>
<!-- download_neurodegenerative&#45;&gt;parse_neurodegenerative -->
<g id="edge5" class="edge">
<title>download_neurodegenerative&#45;&gt;parse_neurodegenerative</title>
<path fill="none" stroke="black" d="M899.44,-71.7C899.44,-64.41 899.44,-55.73 899.44,-47.54"/>
<polygon fill="black" stroke="black" points="902.94,-47.62 899.44,-37.62 895.94,-47.62 902.94,-47.62"/>
</g>
<!-- download_respiratory -->
<g id="node6" class="node">
<title>download_respiratory</title>
<ellipse fill="none" stroke="black" cx="1119.44" cy="-90" rx="87.99" ry="18"/>
<text text-anchor="middle" x="1119.44" y="-86.3" font-family="Times,serif" font-size="14.00">download_respiratory</text>
</g>
<!-- parse_respiratory -->
<g id="node12" class="node">
<title>parse_respiratory</title>
<ellipse fill="none" stroke="black" cx="1119.44" cy="-18" rx="71.49" ry="18"/>
<text text-anchor="middle" x="1119.44" y="-14.3" font-family="Times,serif" font-size="14.00">parse_respiratory</text>
</g>
<!-- download_respiratory&#45;&gt;parse_respiratory -->
<g id="edge6" class="edge">
<title>download_respiratory&#45;&gt;parse_respiratory</title>
<path fill="none" stroke="black" d="M1119.44,-71.7C1119.44,-64.41 1119.44,-55.73 1119.44,-47.54"/>
<polygon fill="black" stroke="black" points="1122.94,-47.62 1119.44,-37.62 1115.94,-47.62 1122.94,-47.62"/>
</g>
<!-- draw_pipeline -->
<g id="node13" class="node">
<title>draw_pipeline</title>
<ellipse fill="none" stroke="black" cx="1286.44" cy="-90" rx="61.19" ry="18"/>
<text text-anchor="middle" x="1286.44" y="-86.3" font-family="Times,serif" font-size="14.00">draw_pipeline</text>
</g>
</g>
</svg>
